<svg version="1.1" viewBox="0 0 24 24" xmlns="http://www.w3.org/2000/svg"><path d="m4 4v1 15h1 7.8v-1h-4.8v-6h4.8v-0.596h4.2v-0.404h-1-8-1v7h-2v-14h3v4 1h8v-1-4h0.293l2.71 2.71v0.293 4.4h1v-4.4-0.699h-0.00781l0.00781-0.00781-3.29-3.29-0.00781 0.00781v-0.00781h-0.699-12zm5 1h3.9v4h-3.9v-4z" fill="#4d4d4d"/><g transform="matrix(.6 0 0 .6 15 -6.7)" stroke-width="1.67"><path d="m-3.63 31.9 1 1h14v10l-4-4-2 2 7 7v-16h-15zm4 2c-0.554 0-1.04 0.232-1.41 0.594l2.81 2.81c0.362-0.362 0.594-0.852 0.594-1.41 0-1.11-0.892-2-2-2z" fill="#b3b3b3"/><path d="m-3.63 31.9v16h16l-7-7-2 2-1-1-5 5v-14zm2.59 2.59c-0.362 0.362-0.594 0.852-0.594 1.41 0 1.11 0.892 2 2 2 0.554 0 1.04-0.232 1.41-0.594z" fill="#4d4d4d"/></g></svg>
