<svg version="1.1" viewBox="0 0 24 24"><path fill="#b2b2b2" d="M 2.354,1.477 V 19.015 h 6.138 v 3.507705 h 6.138 0.877 L 21.646,16.385 V 15.508 4.985 H 15.508 V 1.477 Z M 3.231,2.354 H 14.631 v 2.631 H 8.492 V 18.138 h -5.262 z m 6.138,3.508 H 20.77 v 9.646 h -6.138 v 6.138 H 9.369 Z"/><g transform="matrix(0.6,0,0,0.6,12.4,-12.2)" stroke-width="1.67"> <path d="m -3.63,31.9 1,1 h 14 v 10 l -4,-4 -2,2 7,7 v -16 h -15 z m 4,2 c -0.554,0 -1.04,0.232 -1.41,0.594 l 2.81,2.81 c 0.362,-0.362 0.594,-0.852 0.594,-1.41 0,-1.11 -0.892,-2 -2,-2 z" fill="#b3b3b3" /><path d="m -3.63,31.9 v 16 h 16 l -7,-7 -2,2 -1,-1 -5,5 v -14 z m 2.59,2.59 c -0.362,0.362 -0.594,0.852 -0.594,1.41 0,1.11 0.892,2 2,2 0.554,0 1.04,-0.232 1.41,-0.594 z" fill="#b2b2b2"/></g></svg>
