<svg version="1.1" viewBox="0 0 32 32" xmlns="http://www.w3.org/2000/svg" fill="grey">
    <path d="m4 4v24h5 14 5v-18l-6-6h-1-11-6zm1 1h5v8h11v-8h0.6l5.41 5.41v16.6h-4v-8h-14v8h-4v-22zm6 0h6v7h-6v-7zm-1 15h12v7h-12v-7z"/>
    <circle cx="23.5" cy="21.5" r=".5" fill="#1d99f3"/>
    <path d="m24 22.5v9.5l3-3.5 4.5 0z" fill="#1d99f3"/>
    <path d="m16 16v13h13v-13zm0.55 0.55h3.8v1.1h-3.8zm4.3 0h3.25v1.1h-3.25zm3.8 0h3.8v1.1h-3.8zm-8.1 1.6h3.8v1.6h-3.8zm4.3 0h3.25v1.6h-3.25zm3.8 0h3.8v1.6h-3.8zm-8.1 2.2h3.8v1.6h-3.8zm4.3 0h3.25v1.6h-3.25zm3.8 0h3.8v1.6h-3.8zm-8.1 2.2h3.8v1.6h-3.8zm4.3 0h3.25v1.6h-3.25zm3.8 0h3.8v1.6h-3.8zm-8.1 2.2h3.8v1.6h-3.8zm4.3 0h3.25v1.6h-3.25zm3.8 0h3.8v1.6h-3.8zm-8.1 2.2h3.8v1.6h-3.8zm4.3 0h3.25v1.6h-3.25zm3.8 0h3.8v1.6h-3.8z" fill="#27ae60"/>
</svg>
