<svg xmlns="http://www.w3.org/2000/svg" viewBox="0 0 32 32">
  <path fill="#4d4d4d"
     d="M 4 4 L 4 28 L 9 28 L 23 28 L 28 28 L 28 10 L 27 9 L 23 5 L 22 4 L 21 4 L 10 4 L 4 4 z M 5 5 L 10 5 L 10 13 L 21 13 L 21 5 L 21.585938 5 L 27 10.414062 L 27 27 L 23 27 L 23 19 L 9 19 L 9 27 L 5 27 L 5 5 z M 11 5 L 17 5 L 17 12 L 11 12 L 11 5 z M 10 20 L 22 20 L 22 27 L 10 27 L 10 20 z" />
  <path fill="#27ae60"
     d="M 16,16 V 29 H 29 V 16 Z m 0.542,0.542 h 3.792 v 1.083 h -3.792 z m 4.333,0 h 3.25 v 1.083 H 20.875 Z m 3.792,0 h 3.792 v 1.083 h -3.792 z m -8.125,1.625 h 3.792 v 1.625 h -3.792 z m 4.333,0 h 3.25 v 1.625 H 20.875 Z m 3.792,0 h 3.792 v 1.625 h -3.792 z m -8.125,2.167 h 3.792 v 1.625 h -3.792 z m 4.333,0 h 3.25 v 1.625 H 20.875 Z m 3.792,0 h 3.792 v 1.625 h -3.792 z m -8.125,2.167 h 3.792 v 1.625 h -3.792 z m 4.333,0 h 3.25 v 1.625 H 20.875 Z m 3.792,0 h 3.792 v 1.625 h -3.792 z m -8.125,2.167 h 3.792 v 1.625 h -3.792 z m 4.333,0 h 3.25 v 1.625 H 20.875 Z m 3.792,0 h 3.792 v 1.625 h -3.792 z m -8.125,2.167 h 3.792 v 1.625 h -3.792 z m 4.333,0 h 3.25 v 1.625 H 20.875 Z m 3.792,0 h 3.792 v 1.625 h -3.792 z" />
</svg>
