<svg version="1.1" viewBox="0 0 290 290" xmlns="http://www.w3.org/2000/svg">
    <path d="m230 260v-55h5v-5c0-13-10-25-20-25h-40l1-155c0-10-11-20-21-20s-20 10-20 20v155h-40c-10 0-20 13-20 26v4h5v50c0 18 12 35 30 35h80v-5c7 3 11 5 20 5h45v-10c-13-2e-3 -25-7-25-20zm-85-240c0-5 5-10 10-10s11 5 11 10l-1 135h-20zm0 140h20v15h-20zm-50 25h120c6 0 8 4 10 10h-140c2-5 4-10 10-10zm15 95c-13-1e-3 -20-12-20-25v-50h25v50c0 9 4 19 10 25zm100 0c-18-1e-3 -30-12-30-25h-10c0 9 2 19 5 25h-30c-13 0-20-12-20-25v-50h75v20h10l-7e-3 -20h10l7e-3 55c1e-3 9 4 14 10 20z"/>
    <rect x="200" y="235" width="10" height="10"/>
    <path d="m40 240-10 3e-3c0 8 2 18 5 25-12-12-20-32-20-50h-10c0 47 35 75 75 75l0-10c-22-9e-4 -40-17-40-40z"/>
    <rect x="265" y="280" width="25" height="10"/>
    <path d="m45 225c0 8 7 15 15 15 8 0 15-7 15-15s-7-15-15-15c-8 0-15 7-15 15zm20 0c0 3-2 5-5 5s-5-2-5-5 2-5 5-5 5 2 5 5z"/>
    <path d="m45 175c11 0 20-9 20-20 0-11-9-20-20-20-11 0-20 9-20 20 0 11 9 20 20 20zm0-30c5 0 10 4 10 10 0 5-4 10-10 10-5 0-10-4-10-10 0-5 4-10 10-10z"/>
    <rect x="30" y="225" width="10" height="10"/>
    <rect x="5" y="200" width="10" height="10"/>
    <rect x="5" y="185" width="10" height="10"/>
    </svg>
