<svg version="1.1" viewBox="0 0 24 24" xmlns="http://www.w3.org/2000/svg"><path d="m10 4c-3.32 0-6 2.68-6 6 0 3.32 2.68 6 6 6 1.48 0 2.83-0.535 3.88-1.42l5.42 5.42 0.707-0.707-5.42-5.42c0.883-1.04 1.42-2.39 1.42-3.88 0-3.32-2.68-6-6-6zm0 1c2.77 0 5 2.23 5 5 0 2.77-2.23 5-5 5-2.77 0-5-2.23-5-5 0-2.77 2.23-5 5-5z" fill="#4d4d4d"/><g transform="matrix(.729 0 0 .729 .967 1.1)" fill="none" stroke="#4d4d4d" stroke-width="1.37px"><path d="m7.83 9.92h4.63"/><path d="m10.1 7.6v4.63"/></g><path d="m10 11.7h3.37" fill="none" stroke="#4d4d4d" stroke-width="1px"/></svg>
